<svg width="1920" height="1080" viewBox="0 0 1920 1080" fill="none" xmlns="http://www.w3.org/2000/svg">
<g clip-path="url(#clip0)">
<rect width="1920" height="1080" fill="black"/>
<path d="M1470.96 -175.024C1478.21 -153.71 1479.77 -134 1475.65 -115.892C1472.1 -97.9807 1465.4 -77.0689 1455.55 -53.1573C1447.97 -35.7995 1442.76 -21.8221 1439.94 -11.2249C1437.32 -0.0517584 1437.77 10.7191 1441.29 21.0878C1451.67 51.6176 1485.83 71.8156 1543.76 81.6818L1533.75 142.917C1495.64 136.593 1462.89 126.198 1435.5 111.733C1408.3 97.8443 1388.93 73.9067 1377.38 39.9207C1370.72 20.3355 1368.97 1.97292 1372.14 -15.1672C1376.07 -31.927 1382.87 -52.5508 1392.53 -77.0385C1400.69 -94.5918 1405.99 -109.243 1408.41 -120.992C1411.42 -132.937 1410.96 -144.67 1407.05 -156.191C1401.17 -173.472 1389.27 -186.775 1371.33 -196.099C1354.16 -205.043 1331.91 -211.939 1304.57 -216.785L1312.86 -277.433C1352.12 -271.5 1385.35 -261.589 1412.55 -247.7C1439.94 -233.235 1459.41 -209.01 1470.96 -175.024Z" fill="#55B179"/>
<path d="M1974.92 319.92C1994.42 331.176 2008.58 344.97 2017.42 361.304C2026.56 377.112 2035.3 397.255 2043.65 421.733C2049.38 439.787 2054.68 453.728 2059.55 463.557C2064.94 473.69 2072.37 481.494 2081.86 486.969C2109.78 503.092 2148.78 495.771 2198.86 465.007L2231.69 517.66C2198.86 538.021 2167.37 551.788 2137.24 558.962C2107.63 566.441 2077.28 561.206 2046.2 543.258C2028.28 532.915 2014.87 520.256 2005.95 505.279C1997.87 490.08 1989.39 470.089 1980.51 445.307C1975.08 426.726 1969.41 412.217 1963.49 401.781C1957.88 390.817 1949.8 382.293 1939.26 376.209C1923.46 367.083 1905.73 364.925 1886.1 369.735C1867.29 374.323 1846.01 383.802 1822.26 398.172L1788.52 347.099C1821.96 325.684 1853.48 311.238 1883.09 303.76C1913.23 296.586 1943.84 301.973 1974.92 319.92Z" fill="#55B179"/>
<path d="M1365.06 758.679C1384.4 747.17 1403.36 741.552 1421.93 741.825C1440.19 741.576 1462.03 743.791 1487.47 748.468C1506.02 752.287 1520.78 754.477 1531.73 755.037C1543.2 755.285 1553.65 752.61 1563.06 747.011C1590.77 730.526 1603.44 692.921 1601.07 634.196L1663.05 631.284C1664.77 669.878 1661.4 704.073 1652.93 733.871C1644.99 763.358 1625.59 787.277 1594.74 805.629C1576.97 816.205 1559.36 821.723 1541.94 822.184C1524.73 821.811 1503.14 819.441 1477.19 815.075C1458.32 810.733 1442.89 808.593 1430.89 808.656C1418.58 808.195 1407.2 811.076 1396.74 817.297C1381.06 826.628 1370.51 841.036 1365.12 860.52C1359.93 879.17 1357.8 902.367 1358.73 930.112L1297.68 934.592C1295.34 894.953 1298.14 860.39 1306.08 830.903C1314.55 801.105 1334.21 777.031 1365.06 758.679Z" fill="#F1767D"/>
<path d="M-26.9419 520.679C-7.5956 509.17 11.3617 503.552 29.9301 503.825C48.1876 503.576 70.0342 505.791 95.4701 510.468C114.024 514.287 128.777 516.477 139.729 517.037C151.203 517.285 161.646 514.61 171.058 509.011C198.77 492.526 211.441 454.921 209.071 396.196L271.05 393.284C272.772 431.878 269.399 466.073 260.933 495.871C252.989 525.358 233.593 549.277 202.743 567.629C184.966 578.205 167.365 583.723 149.941 584.184C132.729 583.811 111.144 581.441 85.1855 577.075C66.3207 572.733 50.8895 570.593 38.8922 570.656C26.584 570.195 15.2011 573.076 4.74364 579.297C-10.9425 588.628 -21.4853 603.036 -26.8846 622.52C-32.0719 641.17 -34.2001 664.367 -33.2691 692.112L-94.3161 696.592C-96.6594 656.953 -93.8593 622.39 -85.9158 592.903C-77.4493 563.105 -57.7914 539.031 -26.9419 520.679Z" fill="#F1767D"/>
<path d="M1941.94 606.808C1946.8 628.789 1946.18 648.551 1940.09 666.095C1934.6 683.508 1925.64 703.555 1913.21 726.236C1903.76 742.654 1897.05 755.973 1893.08 766.195C1889.24 777.012 1888.5 787.767 1890.86 798.46C1897.82 829.947 1929.54 853.783 1986.04 869.968L1969.35 929.728C1932.17 919.247 1900.76 905.31 1875.13 887.917C1849.62 871.118 1833 845.193 1825.26 810.142C1820.8 789.943 1821.09 771.5 1826.12 754.812C1831.88 738.588 1840.9 718.838 1853.2 695.562C1863.24 679.014 1870.12 665.035 1873.83 653.624C1878.13 642.083 1878.97 630.371 1876.34 618.489C1872.41 600.667 1862.04 586.134 1845.23 574.891C1829.16 564.111 1807.8 554.808 1781.16 546.982L1796.08 487.615C1834.45 497.834 1866.38 511.343 1891.89 528.142C1917.52 545.534 1934.21 571.756 1941.94 606.808Z" fill="#AC363F"/>
<path d="M608.756 466.589C592.618 482.283 575.488 492.157 557.366 496.21C539.667 500.7 517.905 503.629 492.079 504.997C473.145 505.599 458.288 506.902 447.506 508.905C436.289 511.333 426.755 516.364 418.904 523.999C395.787 546.48 392.212 586.001 408.179 642.562L348.578 659.814C337.925 622.679 333.249 588.637 334.551 557.687C335.417 527.161 348.717 499.386 374.45 474.361C389.28 459.939 405.114 450.478 421.953 445.976C438.779 442.335 460.323 439.618 486.585 437.826C505.943 437.66 521.448 436.151 533.102 433.299C545.18 430.883 555.58 425.434 564.303 416.95C577.388 404.226 584.29 387.761 585.008 367.556C585.714 348.21 582.388 325.154 575.028 298.387L633.357 279.828C644.858 317.834 650.175 352.1 649.31 382.626C648.008 413.576 634.49 441.564 608.756 466.589Z" fill="#003A6A"/>
<path d="M691.036 95.7209C712.858 101.244 730.243 110.662 743.191 123.975C756.288 136.698 770.184 153.699 784.881 174.981C795.313 190.792 804.207 202.765 811.562 210.898C819.506 219.181 828.787 224.666 839.403 227.353C870.663 235.265 906.198 217.604 946.01 174.37L991.931 216.099C965.882 244.628 939.336 266.446 912.292 281.552C885.837 296.808 855.211 300.031 820.413 291.224C800.36 286.148 784.005 277.618 771.349 265.634C759.431 253.209 745.83 236.282 730.544 214.852C720.261 198.451 710.852 186.034 702.317 177.602C693.932 168.581 683.841 162.577 672.045 159.591C654.351 155.113 636.711 157.86 619.124 167.834C602.277 177.368 584.381 192.281 565.438 212.574L519.07 172.614C545.417 142.906 571.818 120.424 598.272 105.169C625.316 90.0622 656.238 86.913 691.036 95.7209Z" fill="#AC363F"/>
<path d="M630.275 -163.751C651.361 -155.795 667.593 -144.464 678.971 -129.757C690.564 -115.619 702.47 -97.1328 714.687 -74.2978C723.281 -57.3865 730.777 -44.4692 737.175 -35.5459C744.144 -26.4076 752.758 -19.9033 763.016 -16.033C793.221 -4.6371 830.568 -18.2105 875.057 -56.7532L916.03 -10.051C886.894 15.4075 858.02 34.1306 829.41 46.1182C801.369 58.3208 770.536 58.0791 736.911 45.3931C717.535 38.0826 702.227 27.751 690.989 14.3983C680.536 0.690802 668.916 -17.688 656.128 -40.7381C647.75 -58.2192 639.791 -71.6364 632.253 -80.9897C624.929 -90.9128 615.568 -98.0246 604.17 -102.325C587.073 -108.775 569.213 -108.028 550.591 -100.083C532.753 -92.4926 513.266 -79.6665 492.129 -61.6047L450.511 -106.597C480.077 -133.196 508.881 -152.596 536.922 -164.799C565.532 -176.786 596.65 -176.437 630.275 -163.751Z" fill="#003A6A"/>
<path d="M42.9618 906.758C59.3181 922.263 69.8912 939 74.681 956.967C79.8899 974.492 83.7015 996.147 86.116 1021.93C87.4848 1040.85 89.3898 1055.67 91.8309 1066.37C94.714 1077.5 100.134 1086.83 108.091 1094.37C131.52 1116.58 171.209 1118.54 227.157 1100.25L246.832 1159.18C210.107 1171.36 176.234 1177.43 145.214 1177.4C114.635 1177.78 86.3051 1165.61 60.2235 1140.88C45.1934 1126.64 35.0855 1111.18 29.8997 1094.52C25.575 1077.83 21.9843 1056.38 19.1278 1030.18C18.178 1010.82 16.0405 995.364 12.7153 983.82C9.80902 971.834 3.93529 961.651 -4.90594 953.27C-18.1678 940.698 -34.9217 934.466 -55.1677 934.574C-74.5527 934.66 -97.4875 938.932 -123.972 947.392L-144.903 889.788C-107.341 876.725 -73.27 870.001 -42.6915 869.618C-11.6709 869.654 16.8802 882.034 42.9618 906.758Z" fill="#003A6A"/>
<path d="M1054.67 797.858C1071.19 813.148 1081.96 829.734 1086.96 847.618C1092.37 865.056 1096.44 886.634 1099.17 912.352C1100.77 931.228 1102.85 945.996 1105.42 956.657C1108.44 967.731 1113.96 976.987 1122 984.425C1145.67 1006.33 1185.32 1007.82 1240.96 988.892L1261.33 1047.5C1224.81 1060.1 1191.06 1066.56 1160.08 1066.89C1129.55 1067.63 1101.12 1055.81 1074.77 1031.43C1059.59 1017.38 1049.31 1002.07 1043.92 985.488C1039.4 968.877 1035.55 947.506 1032.38 921.374C1031.2 902.053 1028.87 886.648 1025.41 875.161C1022.36 863.227 1016.37 853.128 1007.44 844.863C994.047 832.467 977.242 826.441 957.027 826.788C937.671 827.101 914.822 831.637 888.48 840.396L866.876 783.125C904.224 769.639 938.162 762.525 968.691 761.782C999.667 761.453 1028.33 773.478 1054.67 797.858Z" fill="#55B179"/>
<path d="M267.673 736.414C284.194 751.703 294.956 768.29 299.959 786.174C305.374 803.612 309.445 825.19 312.171 850.908C313.769 869.783 315.852 884.552 318.42 895.213C321.435 906.287 326.961 915.543 334.999 922.981C358.665 944.882 398.32 946.371 453.962 927.448L474.328 986.059C437.806 998.652 404.057 1005.11 373.081 1005.44C342.552 1006.19 314.115 994.366 287.77 969.986C272.588 955.936 262.306 940.622 256.924 924.044C252.402 907.433 248.554 886.061 245.382 859.93C244.197 840.608 241.873 825.204 238.412 813.716C235.364 801.783 229.374 791.684 220.443 783.419C207.047 771.022 190.242 764.997 170.027 765.343C150.671 765.657 127.822 770.193 101.48 778.952L79.8755 721.68C117.224 708.194 151.162 701.08 181.691 700.338C212.667 700.008 241.327 712.034 267.673 736.414Z" fill="#55B179"/>
<path d="M1672.68 115.603C1691.82 103.749 1710.67 97.7923 1729.24 97.7326C1747.49 97.1561 1769.38 98.9783 1794.89 103.199C1813.51 106.685 1828.3 108.609 1839.26 108.973C1850.74 109.015 1861.13 106.154 1870.44 100.387C1897.85 83.4068 1909.85 45.5806 1906.42 -13.0919L1968.34 -17.1153C1970.76 21.4416 1968 55.6924 1960.07 85.6373C1952.65 115.262 1933.69 139.525 1903.17 158.427C1885.59 169.32 1868.09 175.153 1850.68 175.926C1833.46 175.862 1811.84 173.88 1785.8 169.979C1766.86 165.976 1751.4 164.114 1739.4 164.391C1727.09 164.152 1715.76 167.236 1705.41 173.644C1689.9 183.255 1679.61 197.849 1674.57 217.427C1669.71 236.167 1668 259.399 1669.43 287.122L1608.47 292.696C1605.42 253.106 1607.6 218.498 1615.01 188.874C1622.94 158.929 1642.17 134.505 1672.68 115.603Z" fill="#55B179"/>
<path d="M302.04 -30.8064C306.305 -52.9094 314.712 -70.8051 327.261 -84.4936C339.214 -98.2973 355.392 -113.144 375.797 -129.035C390.985 -140.355 402.429 -149.92 410.128 -157.728C417.943 -166.134 422.887 -175.714 424.962 -186.466C431.072 -218.127 411.406 -252.594 365.964 -289.865L404.994 -338.1C434.968 -313.727 458.27 -288.473 474.9 -262.338C491.645 -236.8 496.617 -206.409 489.815 -171.163C485.896 -150.852 478.316 -134.036 467.076 -120.715C455.355 -108.106 439.234 -93.5574 418.713 -77.0697C402.928 -65.8645 391.071 -55.7602 383.141 -46.7569C374.614 -37.8687 369.198 -27.4509 366.892 -15.5033C363.434 2.41798 367.187 19.872 378.152 36.8588C388.634 53.1329 404.547 70.1452 425.891 87.8957L388.651 136.475C357.484 111.872 333.527 86.8018 316.782 61.2641C300.153 35.129 295.238 4.43883 302.04 -30.8064Z" fill="#55B179"/>
<path d="M1523.89 256.572C1538.98 273.188 1548.22 290.604 1551.62 308.819C1555.47 326.626 1557.61 348.436 1558.05 374.25C1557.98 393.162 1558.75 408.029 1560.36 418.853C1562.38 430.125 1567.06 439.803 1574.4 447.886C1596.01 471.688 1635.32 476.548 1692.34 462.467L1707.43 522.502C1669.99 531.916 1635.85 535.467 1605.01 533.156C1574.57 531.293 1547.33 517.114 1523.27 490.618C1509.41 475.349 1500.53 459.24 1496.64 442.291C1493.61 425.383 1491.67 403.797 1490.82 377.533C1491.35 358.213 1490.39 342.692 1487.96 330.971C1485.99 318.841 1480.92 308.285 1472.76 299.303C1460.53 285.831 1444.35 278.405 1424.21 277.027C1404.93 275.69 1381.8 278.255 1354.82 284.723L1338.39 225.914C1376.73 215.682 1411.11 211.498 1441.55 213.36C1472.39 215.672 1499.84 230.076 1523.89 256.572Z" fill="#00AAA1"/>
<path d="M131.892 18.5719C146.977 35.1881 156.219 52.6038 159.617 70.8191C163.465 88.6258 165.61 110.436 166.052 136.25C165.976 155.162 166.745 170.029 168.359 180.853C170.381 192.125 175.062 201.803 182.4 209.886C204.009 233.688 243.323 238.548 300.342 224.467L315.428 284.502C277.988 293.916 243.847 297.467 213.006 295.156C182.572 293.293 155.328 279.114 131.273 252.618C117.41 237.349 108.534 221.24 104.643 204.291C101.611 187.383 99.6694 165.797 98.8194 139.533C99.3456 120.213 98.394 104.692 95.9645 92.9709C93.9852 80.8408 88.9184 70.2849 80.7641 61.3032C68.5327 47.8307 52.3475 40.4054 32.2085 39.0274C12.9275 37.6897 -10.2012 40.2549 -37.1776 46.7228L-53.6144 -12.0861C-15.2734 -22.3179 19.1139 -26.5025 49.5474 -24.6398C80.3886 -22.328 107.837 -7.92408 131.892 18.5719Z" fill="#00AAA1"/>
<path d="M1164.31 512.444C1186.74 512.444 1205.84 517.316 1221.6 527.061C1237.36 536.196 1254.94 549.289 1274.34 566.342C1288.28 579.131 1299.8 588.571 1308.89 594.661C1318.59 600.751 1328.9 603.796 1339.81 603.796C1371.94 603.796 1401.94 577.913 1429.83 526.147L1484.39 555.38C1466.2 589.484 1445.89 617.194 1423.47 638.509C1401.64 659.825 1372.85 670.482 1337.08 670.482C1316.47 670.482 1298.59 666.219 1283.43 657.693C1268.88 648.558 1251.6 635.464 1231.6 618.412C1217.66 605.014 1205.53 595.27 1195.23 589.18C1184.92 582.481 1173.71 579.131 1161.58 579.131C1143.4 579.131 1127.03 586.135 1112.48 600.142C1098.54 613.54 1084.9 632.419 1071.56 656.78L1017 629.374C1035.19 594.052 1055.19 565.733 1077.01 544.417C1099.44 523.102 1128.54 512.444 1164.31 512.444Z" fill="#003A6A"/>
<path d="M-227.691 274.444C-205.261 274.444 -186.165 279.316 -170.403 289.061C-154.642 298.196 -137.062 311.289 -117.663 328.342C-103.72 341.131 -92.2021 350.571 -83.109 356.661C-73.4096 362.751 -63.104 365.796 -52.1921 365.796C-20.0629 365.796 9.94457 339.913 37.8303 288.147L92.3894 317.38C74.203 351.484 53.8949 379.194 31.4651 400.509C9.64148 421.825 -19.1536 432.482 -54.9201 432.482C-75.5313 432.482 -93.4145 428.219 -108.57 419.693C-123.119 410.558 -140.396 397.464 -160.401 380.412C-174.344 367.014 -186.468 357.27 -196.774 351.18C-207.079 344.481 -218.294 341.131 -230.418 341.131C-248.605 341.131 -264.973 348.135 -279.522 362.142C-293.465 375.54 -307.104 394.419 -320.441 418.78L-375 391.374C-356.814 356.052 -336.809 327.733 -314.985 306.417C-292.555 285.102 -263.457 274.444 -227.691 274.444Z" fill="#003A6A"/>
<path d="M1255.79 93.837C1255.79 116.28 1250.93 135.386 1241.2 151.157C1232.08 166.928 1219.01 184.519 1201.98 203.93C1189.22 217.881 1179.79 229.406 1173.71 238.505C1167.63 248.21 1164.59 258.521 1164.59 269.439C1164.6 301.587 1190.44 331.61 1242.12 359.508L1212.94 414.1C1178.89 395.905 1151.22 375.587 1129.94 353.146C1108.66 331.311 1098.02 302.5 1098.02 266.714C1098.02 246.091 1102.27 228.197 1110.78 213.033C1119.9 198.475 1132.97 181.187 1150 161.17C1163.37 147.219 1173.1 135.087 1179.18 124.775C1185.87 114.464 1189.21 103.242 1189.21 91.1111C1189.21 72.9145 1182.22 56.5379 1168.23 41.9814C1154.85 28.0313 1136 14.3849 1111.68 1.04203L1139.04 -53.5493C1174.31 -35.3546 1202.58 -15.3399 1223.86 6.49494C1245.14 28.9363 1255.79 58.0503 1255.79 93.837Z" fill="#CF515B"/>
<path d="M1563.39 974C1585.84 974 1604.94 978.864 1620.71 988.592C1636.48 997.713 1654.07 1010.78 1673.48 1027.81C1687.43 1040.58 1698.96 1050 1708.06 1056.08C1717.76 1062.16 1728.07 1065.2 1738.99 1065.2C1771.14 1065.2 1801.16 1039.36 1829.06 987.68L1883.65 1016.87C1865.46 1050.91 1845.14 1078.58 1822.69 1099.86C1800.86 1121.14 1772.05 1131.78 1736.26 1131.78C1715.64 1131.78 1697.74 1127.52 1682.58 1119.01C1668.02 1109.89 1650.74 1096.82 1630.72 1079.79C1616.77 1066.42 1604.64 1056.69 1594.33 1050.61C1584.02 1043.92 1572.79 1040.58 1560.66 1040.58C1542.47 1040.58 1526.09 1047.57 1511.53 1061.55C1497.58 1074.93 1483.93 1093.78 1470.59 1118.1L1416 1090.74C1434.2 1055.47 1454.21 1027.2 1476.05 1005.92C1498.49 984.64 1527.61 974 1563.39 974Z" fill="#00AAA1"/>
<path d="M685.125 858.354C695.883 878.05 700.774 897.15 699.796 915.654C699.351 933.866 696.311 955.57 690.674 980.765C686.156 999.129 683.41 1013.76 682.435 1024.66C681.751 1036.09 684.026 1046.6 689.26 1056.18C704.67 1084.39 741.741 1098.36 800.472 1098.07L801.027 1159.97C762.423 1160.32 728.403 1155.75 698.969 1146.25C669.826 1137.29 646.677 1117.11 629.522 1085.7C619.636 1067.6 614.794 1049.86 614.995 1032.47C616.021 1015.32 619.207 993.883 624.553 968.156C629.604 949.5 632.327 934.191 632.72 922.227C633.647 909.971 631.203 898.52 625.387 887.874C616.665 871.904 602.678 860.883 583.426 854.811C565 848.98 541.916 846.038 514.175 845.985L512.019 784.96C551.691 784.025 586.098 788.039 615.242 797.002C644.676 806.496 667.971 826.947 685.125 858.354Z" fill="#F1767D"/>
<path d="M924.598 555.132C908.444 570.809 891.304 580.666 873.178 584.702C855.475 589.174 833.709 592.081 807.882 593.423C788.948 594.006 774.089 595.294 763.306 597.286C752.086 599.703 742.546 604.724 734.688 612.351C711.549 634.808 707.934 674.326 723.844 730.903L664.225 748.095C653.61 710.95 648.969 676.903 650.302 645.954C651.198 615.43 664.526 587.667 690.285 562.668C705.129 548.262 720.972 538.816 737.815 534.332C754.645 530.707 776.192 528.012 802.456 526.246C821.814 526.099 837.321 524.606 848.977 521.766C861.057 519.362 871.463 513.923 880.195 505.449C893.293 492.737 900.211 476.279 900.95 456.075C901.675 436.73 898.372 413.671 891.038 386.896L949.387 368.396C960.849 406.414 966.132 440.685 965.236 471.21C963.903 502.158 950.357 530.132 924.598 555.132Z" fill="#00AAA1"/>
<path d="M696.034 1155.62C715.529 1144.36 734.558 1138.99 753.121 1139.51C771.38 1139.5 793.196 1142 818.569 1147.01C837.071 1151.07 851.794 1153.45 862.738 1154.15C874.208 1154.55 884.685 1152.01 894.169 1146.53C922.094 1130.41 935.255 1092.98 933.651 1034.23L995.663 1032.12C996.881 1070.74 993.062 1104.88 984.208 1134.57C975.88 1163.95 956.173 1187.61 925.087 1205.56C907.173 1215.9 889.501 1221.19 872.073 1221.43C854.868 1220.83 833.315 1218.18 807.416 1213.47C788.609 1208.88 773.207 1206.54 761.21 1206.45C748.909 1205.83 737.489 1208.56 726.952 1214.64C711.145 1223.77 700.415 1238.04 694.762 1257.45C689.332 1276.03 686.901 1299.2 687.47 1326.95L626.369 1330.64C624.544 1290.97 627.795 1256.45 636.122 1227.07C644.977 1197.38 664.947 1173.56 696.034 1155.62Z" fill="#F1767D"/>
</g>
<defs>
<clipPath id="clip0">
<rect width="1920" height="1080" fill="white"/>
</clipPath>
</defs>
</svg>
