<?xml version="1.0" standalone="no"?>
<!DOCTYPE svg PUBLIC "-//W3C//DTD SVG 20010904//EN"
 "http://www.w3.org/TR/2001/REC-SVG-20010904/DTD/svg10.dtd">
<svg version="1.0" xmlns="http://www.w3.org/2000/svg"
 width="1872.000000pt" height="1872.000000pt" viewBox="0 0 1872.000000 1872.000000"
 preserveAspectRatio="xMidYMid meet">
<metadata>
Created by potrace 1.11, written by Peter Selinger 2001-2013
</metadata>
<g transform="translate(0.000000,1872.000000) scale(0.100000,-0.100000)"
fill="#000000" stroke="none">
<path d="M5527 12533 c-2 -2 -37 -5 -78 -8 -69 -3 -128 -9 -239 -21 -25 -3
-67 -7 -95 -10 -27 -2 -61 -7 -75 -9 -14 -2 -45 -6 -70 -9 -25 -3 -56 -8 -70
-11 -40 -8 -103 -18 -131 -20 -14 -1 -30 -5 -36 -8 -6 -4 -24 -9 -40 -11 -134
-19 -444 -101 -653 -173 -300 -103 -592 -237 -830 -381 -19 -12 -48 -29 -65
-38 -71 -40 -360 -240 -405 -281 -8 -7 -42 -34 -75 -60 -33 -26 -65 -52 -71
-58 -6 -5 -40 -35 -75 -65 -98 -85 -539 -533 -539 -547 0 -2 -8 -11 -17 -21
-33 -34 -141 -157 -164 -187 -13 -16 -29 -36 -36 -43 -7 -7 -13 -18 -13 -23 0
-5 -7 -9 -15 -9 -8 0 -15 -6 -15 -14 0 -8 -3 -16 -7 -18 -7 -2 -30 -30 -110
-128 -40 -48 -156 -198 -217 -280 -39 -52 -75 -99 -79 -105 -4 -5 -36 -49 -71
-98 -35 -48 -71 -97 -80 -110 -9 -12 -39 -56 -68 -97 -151 -221 -218 -322
-218 -331 0 -5 -7 -12 -15 -15 -8 -4 -12 -10 -9 -15 3 -5 0 -9 -5 -9 -6 0 -11
-4 -11 -9 0 -4 -27 -49 -60 -99 -33 -51 -60 -96 -60 -102 0 -5 -4 -10 -9 -10
-5 0 -13 -10 -17 -22 -4 -13 -10 -25 -14 -28 -10 -8 -190 -310 -190 -321 0 -5
-3 -9 -8 -9 -4 0 -13 -15 -21 -32 -8 -18 -17 -35 -20 -38 -8 -7 -47 -75 -69
-120 -9 -19 -20 -37 -23 -40 -3 -3 -22 -36 -43 -74 -20 -38 -40 -74 -45 -80
-4 -6 -25 -45 -47 -86 -21 -41 -48 -92 -61 -112 -13 -21 -21 -38 -18 -38 3 0
-6 -17 -20 -37 -14 -21 -25 -41 -25 -45 0 -4 -14 -30 -30 -58 -17 -28 -30 -57
-30 -65 0 -7 -6 -15 -12 -18 -7 -2 -10 -7 -7 -11 3 -3 203 -106 445 -227 241
-121 484 -244 539 -272 55 -28 102 -51 105 -52 9 -2 625 -310 630 -315 10 -10
461 -232 464 -228 2 1 22 37 45 78 22 41 45 82 51 90 5 8 20 35 32 60 13 25
26 47 29 50 3 3 17 25 30 50 14 25 35 61 46 80 38 65 185 305 214 348 16 24
29 47 29 52 0 5 6 15 13 22 7 7 57 81 112 163 55 83 105 156 112 163 7 7 13
17 13 21 0 4 8 16 18 27 9 11 34 45 56 77 21 31 42 57 47 57 5 0 9 5 9 11 0
10 44 75 65 94 5 6 18 21 27 35 21 35 102 137 198 250 8 10 24 29 34 42 43 52
124 146 176 203 102 112 368 375 379 375 6 0 11 4 11 9 0 8 132 120 194 165
15 11 39 30 54 43 15 13 31 23 35 23 4 0 18 9 30 21 55 51 478 285 531 293 6
1 16 4 21 8 28 17 302 107 350 114 17 3 44 9 60 14 17 5 46 11 65 14 19 3 46
8 60 11 182 37 558 47 750 20 118 -16 147 -21 211 -36 26 -6 55 -12 65 -14 11
-2 21 -4 24 -5 3 -1 8 -2 11 -2 11 2 240 -74 314 -104 98 -39 301 -144 385
-199 53 -35 60 -39 137 -85 50 -30 250 -164 278 -187 6 -5 26 -19 45 -33 19
-13 37 -27 40 -30 3 -3 21 -17 40 -30 19 -13 37 -27 40 -30 3 -3 25 -21 50
-40 25 -19 50 -39 57 -45 6 -5 26 -21 44 -35 18 -14 37 -30 43 -35 6 -6 36
-30 66 -55 80 -65 111 -92 137 -117 13 -13 26 -23 29 -23 3 0 19 -13 34 -30
15 -16 30 -30 33 -30 3 0 20 -15 39 -32 18 -18 78 -73 132 -123 54 -49 120
-110 146 -135 75 -71 130 -121 200 -180 36 -30 70 -59 76 -65 19 -16 91 -77
224 -185 69 -56 127 -106 128 -111 2 -5 10 -9 17 -9 7 0 15 -3 17 -8 2 -4 26
-25 53 -47 28 -22 52 -42 55 -45 3 -3 34 -28 70 -55 36 -28 70 -54 76 -60 12
-12 49 -40 119 -93 28 -20 54 -43 58 -49 4 -7 13 -13 18 -13 6 0 16 -6 23 -12
17 -18 70 -58 146 -114 36 -26 67 -51 68 -56 2 -4 9 -8 14 -8 6 0 18 -7 27
-16 9 -8 57 -44 106 -79 50 -35 95 -68 100 -72 6 -5 33 -24 60 -43 28 -19 52
-38 53 -42 2 -5 10 -8 17 -8 7 0 15 -4 17 -8 9 -24 552 -367 580 -367 4 0 13
-6 20 -13 6 -6 15 -12 19 -12 4 0 47 -18 94 -40 47 -22 88 -40 89 -40 2 0 19
-6 37 -14 19 -8 37 -14 42 -15 4 0 20 -7 35 -14 15 -8 56 -24 92 -36 36 -12
74 -26 85 -31 11 -4 45 -15 75 -24 30 -8 82 -23 115 -32 64 -19 66 -19 107
-27 15 -3 31 -8 35 -10 5 -3 24 -8 43 -11 19 -3 46 -8 60 -11 39 -9 161 -33
200 -39 19 -3 46 -8 60 -10 14 -2 48 -7 75 -11 28 -3 64 -8 80 -10 161 -22
410 -35 650 -35 308 1 568 17 810 50 39 6 88 12 110 15 22 2 50 7 61 9 12 2
39 7 60 10 22 4 46 8 54 11 8 2 33 7 55 10 40 7 66 12 75 15 3 1 8 2 12 1 4 0
44 9 90 20 46 12 91 23 101 25 10 2 28 6 40 10 12 5 27 8 32 9 14 1 83 21 200
58 55 17 102 31 105 32 3 0 10 3 15 7 6 3 26 11 45 16 62 19 223 82 237 93 7
6 13 8 13 5 0 -4 17 2 37 12 21 11 56 28 78 37 50 22 176 85 275 138 110 59
115 61 120 68 3 3 16 12 30 19 31 16 213 132 220 140 3 3 21 16 40 27 19 12
44 30 55 40 11 10 37 29 57 43 21 14 38 28 38 33 0 4 5 7 11 7 6 0 16 6 23 13
7 6 35 30 62 52 57 47 126 106 173 149 59 53 502 497 571 572 36 39 90 99 120
134 30 35 70 79 87 99 18 20 39 43 46 51 7 8 33 40 58 70 24 30 53 64 64 77
11 12 25 28 30 35 6 7 47 58 90 113 44 55 85 105 90 112 25 30 33 41 75 98 25
33 51 66 58 74 7 7 30 39 52 70 22 31 64 90 95 131 30 41 72 100 92 130 21 30
45 63 54 73 9 10 25 33 35 52 10 19 22 35 26 35 5 0 8 6 8 14 0 8 3 16 8 18 4
2 23 28 43 58 151 228 219 333 219 340 0 5 6 15 13 22 12 12 166 261 209 337
11 19 35 59 54 88 19 29 34 55 34 57 0 2 29 54 65 115 36 62 65 115 65 117 0
3 9 17 20 31 11 14 17 29 14 34 -3 5 -1 9 4 9 6 0 15 12 21 28 7 15 22 45 35
67 45 78 86 156 86 163 0 8 -17 18 -185 107 -49 26 -112 60 -140 75 -27 15
-79 43 -115 61 -36 19 -67 36 -70 39 -3 3 -27 16 -55 29 -27 14 -58 31 -67 39
-10 9 -18 12 -18 8 0 -3 -17 4 -37 17 -21 12 -56 31 -78 42 -22 11 -41 23 -43
28 -2 4 -12 7 -23 7 -10 0 -19 3 -19 8 0 4 -10 12 -23 17 -23 12 -209 110
-292 155 -48 26 -135 73 -275 147 -75 40 -129 69 -255 137 -49 27 -124 67
-165 89 -41 21 -104 55 -140 75 -134 73 -174 92 -181 84 -3 -4 -26 -43 -49
-87 -24 -44 -50 -88 -58 -97 -8 -10 -12 -18 -9 -18 4 0 -10 -28 -31 -62 -21
-35 -53 -90 -71 -123 -18 -33 -43 -76 -56 -95 -12 -19 -55 -89 -95 -155 -117
-193 -410 -630 -439 -655 -3 -3 -10 -13 -16 -22 -8 -14 -74 -100 -172 -227
-10 -13 -26 -32 -35 -42 -10 -11 -18 -23 -18 -29 0 -5 -3 -10 -7 -10 -5 0 -30
-28 -58 -62 -27 -34 -57 -70 -65 -78 -8 -9 -40 -45 -70 -79 -121 -138 -377
-389 -524 -512 -16 -13 -34 -29 -40 -34 -36 -33 -226 -175 -234 -175 -6 0 -12
-4 -14 -8 -4 -11 -205 -142 -217 -142 -5 0 -11 -3 -13 -7 -3 -8 -11 -13 -153
-87 -166 -88 -395 -174 -575 -218 -135 -32 -137 -33 -215 -43 -27 -4 -52 -8
-55 -10 -10 -6 -212 -19 -300 -18 -92 0 -260 10 -300 17 -14 3 -43 7 -65 11
-22 3 -47 8 -55 10 -8 3 -29 7 -45 9 -145 23 -455 132 -565 199 -19 12 -35 20
-35 17 0 -5 -131 71 -205 120 -90 59 -357 256 -450 332 -19 16 -48 39 -63 51
-15 12 -33 27 -40 32 -7 6 -46 38 -87 72 -41 33 -88 72 -103 87 -15 14 -30 26
-33 26 -3 0 -15 10 -28 23 -12 12 -47 42 -76 67 -30 25 -65 56 -79 69 -14 13
-50 44 -79 69 -29 25 -65 57 -81 71 -15 14 -50 46 -77 71 -28 25 -90 81 -139
125 -48 44 -97 86 -108 94 -11 8 -35 28 -52 45 -18 17 -43 40 -56 50 -13 11
-40 33 -59 50 -20 17 -57 49 -84 71 -27 22 -54 45 -60 50 -11 10 -169 141
-196 162 -75 59 -187 149 -196 158 -6 5 -22 17 -34 25 -12 8 -30 22 -40 30
-10 8 -27 22 -37 30 -97 79 -514 384 -561 410 -14 8 -31 20 -37 26 -9 9 -176
121 -330 219 -110 71 -255 156 -261 155 -4 -1 -10 2 -13 7 -3 4 -35 25 -71 46
-36 21 -72 42 -80 47 -8 5 -36 20 -62 32 -27 13 -48 26 -48 30 0 5 -6 8 -13 8
-8 0 -40 13 -73 29 -93 45 -159 76 -164 76 -3 1 -22 9 -44 18 -21 9 -42 17
-46 17 -4 0 -29 9 -56 19 -52 20 -86 33 -94 36 -3 1 -39 12 -80 24 -41 12 -81
24 -88 27 -7 2 -13 3 -15 3 -1 0 -14 4 -30 10 -15 6 -38 13 -50 15 -12 3 -67
16 -122 29 -90 22 -151 36 -195 42 -8 2 -44 7 -80 13 -121 21 -145 25 -165 27
-89 9 -166 17 -195 21 -19 3 -62 8 -95 10 -75 6 -793 13 -798 7z"/>
</g>
</svg>
